{"title":"Revolution Z - Season 1 - Episode 5 - SatRip","uid":7851769,"size":526159328,"categoryP":"video","categoryS":"tv_shows","magnet":"?xt=urn:btih:97bfe2a46c9ddca2ee3c604180ecc57968497c3c&amp;dn=Revolution+Z+-+Season+1+-+Episode+5+-+SatRip&amp;tr=udp%3A%2F%2Ftracker.openbittorrent.com%3A80&amp;tr=udp%3A%2F%2Fopen.demonii.com%3A1337&amp;tr=udp%3A%2F%2Ftracker.coppersurfer.tk%3A6969&amp;tr=udp%3A%2F%2Fexodus.desync.com%3A6969","seeders":1,"leechers":0,"uploader":"xboybg","files":1,"time":1353619232,"description":"Input #0, mov,mp4,m4a,3gp,3g2,mj2, from 'Revolution Z - Season 1 - Episode 5.mp4':\n  Metadata:\n    major_brand     : mp42\n    minor_version   : 0\n    compatible_brands: mp42isomavc1\n    creation_time   : 2012-11-22 20:10:56\n    encoder         : HandBrake 5044svn 2012110601\n  Duration: 00:48:41.70, start: 0.000000, bitrate: 1440 kb/s\n    Stream #0:0(und): Video: h264 (Main) (avc1 / 0x31637661), yuv420p, 720x576 [SAR 16:11 DAR 20:11], 1337 kb/s, 25 fps, 25 tbr, 90k tbn, 180k tbc\n    Metadata:\n      creation_time   : 2012-11-22 20:10:56\n    Stream #0:1(und): Audio: aac (mp4a / 0x6134706D), 48000 Hz, stereo, s16, 98 kb/s\n    Metadata:\n      creation_time   : 2012-11-22 20:10:56","torrent":{"xt":"urn:btih:97bfe2a46c9ddca2ee3c604180ecc57968497c3c","amp;dn":"Revolution+Z+-+Season+1+-+Episode+5+-+SatRip","amp;tr":["udp%3A%2F%2Ftracker.openbittorrent.com%3A80","udp%3A%2F%2Fopen.demonii.com%3A1337","udp%3A%2F%2Ftracker.coppersurfer.tk%3A6969","udp%3A%2F%2Fexodus.desync.com%3A6969"],"infoHash":"97bfe2a46c9ddca2ee3c604180ecc57968497c3c","infoHashBuffer":{"type":"Buffer","data":[151,191,226,164,108,157,220,162,238,60,96,65,128,236,197,121,104,73,124,60]},"announce":[],"urlList":[]}}